<svg width="18" height="21" viewBox="0 0 18 21" fill="none" xmlns="http://www.w3.org/2000/svg">
<path d="M16.5001 8.68486H0.798828M12.1386 1.48486V5.08486M5.16029 1.48486V5.08486M4.98583 19.4849H12.3131C13.7787 19.4849 14.5115 19.4849 15.0713 19.1906C15.5637 18.9317 15.964 18.5187 16.2149 18.0106C16.5001 17.4331 16.5001 16.677 16.5001 15.1649V7.60486C16.5001 6.09272 16.5001 5.33665 16.2149 4.75909C15.964 4.25105 15.5637 3.838 15.0713 3.57915C14.5115 3.28486 13.7787 3.28486 12.3131 3.28486H4.98584C3.52025 3.28486 2.78745 3.28486 2.22767 3.57915C1.73527 3.838 1.33494 4.25105 1.08405 4.75909C0.798828 5.33665 0.798828 6.09272 0.798828 7.60486V15.1649C0.798828 16.677 0.798828 17.4331 1.08405 18.0106C1.33494 18.5187 1.73527 18.9317 2.22767 19.1906C2.78745 19.4849 3.52025 19.4849 4.98583 19.4849Z" stroke="#585858" stroke-width="1.2" stroke-linecap="round" stroke-linejoin="round"/>
</svg>
