<svg width="21" height="36" viewBox="0 0 21 36" fill="none" xmlns="http://www.w3.org/2000/svg">
<rect x="0.455078" y="0.464355" width="20.1234" height="35.216" fill="black"/>
<rect x="2.21582" y="1.34473" width="16.7275" height="30.814" fill="white"/>
<ellipse cx="11.0196" cy="33.92" rx="1.76079" ry="1.7608" fill="white"/>
<path d="M9.43254 28.4638C9.82307 28.8543 10.4562 28.8543 10.8468 28.4638L17.2107 22.0998C17.6012 21.7093 17.6012 21.0761 17.2107 20.6856C16.8202 20.2951 16.187 20.2951 15.7965 20.6856L10.1396 26.3425L4.48279 20.6856C4.09227 20.2951 3.45911 20.2951 3.06858 20.6856C2.67806 21.0761 2.67806 21.7093 3.06858 22.0998L9.43254 28.4638ZM9.13965 3.10547L9.13965 27.7567H11.1396L11.1396 3.10547H9.13965Z" fill="black"/>
</svg>
