<svg width="62" height="70" viewBox="0 0 62 70" fill="none" xmlns="http://www.w3.org/2000/svg">
<path d="M38.0833 12.8451H23.25M60.3333 17.9083V51.6635C60.3333 65.1656 56.625 68.5411 41.7917 68.5411H19.5417C4.70833 68.5411 1 65.1656 1 51.6635V17.9083C1 4.40628 4.70833 1.03076 19.5417 1.03076H41.7917C56.625 1.03076 60.3333 4.40628 60.3333 17.9083Z" stroke="#585858" stroke-width="2" stroke-linecap="round" stroke-linejoin="round"/>
<path d="M30.6669 58.7522C32.1913 58.7522 33.6533 58.201 34.7313 57.2198C35.8092 56.2386 36.4148 54.9078 36.4148 53.5201C36.4148 52.1325 35.8092 50.8017 34.7313 49.8205C33.6533 48.8393 32.1913 48.2881 30.6669 48.2881C29.1424 48.2881 27.6804 48.8393 26.6025 49.8205C25.5245 50.8017 24.9189 52.1325 24.9189 53.5201C24.9189 54.9078 25.5245 56.2386 26.6025 57.2198C27.6804 58.201 29.1424 58.7522 30.6669 58.7522Z" stroke="#585858" stroke-width="2" stroke-linecap="round" stroke-linejoin="round"/>
</svg>
