<svg width="21" height="20" viewBox="0 0 21 20" fill="none" xmlns="http://www.w3.org/2000/svg">
<mask id="mask0_1133_648" style="mask-type:alpha" maskUnits="userSpaceOnUse" x="0" y="0" width="21" height="20">
<rect x="0.899902" width="20" height="20" fill="#D9D9D9"/>
</mask>
<g mask="url(#mask0_1133_648)">
<path d="M10.2751 13.9585H11.5251V10.6252H14.8584V9.37516H11.5251V6.04183H10.2751V9.37516H6.94173V10.6252H10.2751V13.9585ZM10.9015 17.9168C9.80652 17.9168 8.77729 17.7091 7.81382 17.2935C6.85034 16.8779 6.01229 16.314 5.29965 15.6016C4.58701 14.8893 4.02277 14.0516 3.60694 13.0885C3.19125 12.1254 2.9834 11.0965 2.9834 10.0016C2.9834 8.90662 3.19118 7.87739 3.60673 6.91391C4.02229 5.95044 4.58625 5.11238 5.29861 4.39975C6.01097 3.68711 6.84868 3.12287 7.81173 2.70704C8.77479 2.29134 9.80375 2.0835 10.8986 2.0835C11.9936 2.0835 13.0228 2.29127 13.9863 2.70683C14.9498 3.12238 15.7878 3.68634 16.5005 4.3987C17.2131 5.11107 17.7774 5.94877 18.1932 6.91183C18.6089 7.87489 18.8167 8.90384 18.8167 9.9987C18.8167 11.0937 18.609 12.1229 18.1934 13.0864C17.7778 14.0499 17.2139 14.8879 16.5015 15.6006C15.7892 16.3132 14.9515 16.8775 13.9884 17.2933C13.0253 17.709 11.9964 17.9168 10.9015 17.9168ZM10.9001 16.6668C12.7612 16.6668 14.3376 16.021 15.6292 14.7293C16.9209 13.4377 17.5667 11.8613 17.5667 10.0002C17.5667 8.13905 16.9209 6.56266 15.6292 5.271C14.3376 3.97933 12.7612 3.3335 10.9001 3.3335C9.03895 3.3335 7.46257 3.97933 6.1709 5.271C4.87923 6.56266 4.2334 8.13905 4.2334 10.0002C4.2334 11.8613 4.87923 13.4377 6.1709 14.7293C7.46257 16.021 9.03895 16.6668 10.9001 16.6668Z" fill="#585858"/>
</g>
</svg>
