<svg width="29" height="30" viewBox="0 0 29 30" fill="none" xmlns="http://www.w3.org/2000/svg">
<g filter="url(#filter0_i_1133_94)">
<path d="M14.6446 16.0977C14.5483 16.0856 14.4509 16.0856 14.3546 16.0977C13.3299 16.0632 12.3587 15.6317 11.6462 14.8944C10.9337 14.1571 10.5357 13.1718 10.5363 12.1464C10.5363 9.95936 12.3005 8.18311 14.4996 8.18311C15.5381 8.18131 16.5357 8.58767 17.2774 9.3146C18.019 10.0415 18.4453 11.0308 18.4643 12.0691C18.4834 13.1074 18.0936 14.1116 17.3791 14.8652C16.6645 15.6188 15.6825 16.0615 14.6446 16.0977ZM22.6438 24.0727C20.4232 26.1137 17.5157 27.2439 14.4996 27.2385C11.358 27.2385 8.5063 26.0423 6.35547 24.0727C6.4763 22.9369 7.2013 21.8252 8.49422 20.9552C11.8051 18.756 17.2184 18.756 20.5051 20.9552C21.798 21.8252 22.523 22.9369 22.6438 24.0727Z" stroke="black" stroke-width="1.5" stroke-linecap="round" stroke-linejoin="round"/>
<path d="M14.5003 27.2389C21.1739 27.2389 26.5837 21.8292 26.5837 15.1556C26.5837 8.48197 21.1739 3.07227 14.5003 3.07227C7.8267 3.07227 2.41699 8.48197 2.41699 15.1556C2.41699 21.8292 7.8267 27.2389 14.5003 27.2389Z" stroke="black" stroke-width="1.5" stroke-linecap="round" stroke-linejoin="round"/>
</g>
<defs>
<filter id="filter0_i_1133_94" x="0" y="0.655273" width="29" height="33" filterUnits="userSpaceOnUse" color-interpolation-filters="sRGB">
<feFlood flood-opacity="0" result="BackgroundImageFix"/>
<feBlend mode="normal" in="SourceGraphic" in2="BackgroundImageFix" result="shape"/>
<feColorMatrix in="SourceAlpha" type="matrix" values="0 0 0 0 0 0 0 0 0 0 0 0 0 0 0 0 0 0 127 0" result="hardAlpha"/>
<feOffset dy="4"/>
<feGaussianBlur stdDeviation="2"/>
<feComposite in2="hardAlpha" operator="arithmetic" k2="-1" k3="1"/>
<feColorMatrix type="matrix" values="0 0 0 0 0 0 0 0 0 0 0 0 0 0 0 0 0 0 0.25 0"/>
<feBlend mode="normal" in2="shape" result="effect1_innerShadow_1133_94"/>
</filter>
</defs>
</svg>
